<svg width="460" height="31" viewBox="0 0 460 31" fill="none" xmlns="http://www.w3.org/2000/svg">
<path d="M20.8057 30.8052H2.51815V18.0081L0 15.7789L2.51815 13.591V0.587402H20.8057V5.00449H6.93524V13.591H17.6271V18.0081H6.93524V26.3881H20.8057V30.8052ZM61.2448 15.8202L58.7266 18.0081V30.8465H54.3095V8.43083L46.9615 22.26H42.338L34.9899 8.43083V30.8465H30.5728V18.0081L28.0547 15.8202L30.5728 13.591V0.587402H35.4027L44.6497 17.6365L53.8967 0.587402H58.7266V13.591L61.2448 15.8202ZM94.7899 30.8465H90.1664L87.318 23.2921H74.9336L72.0852 30.8465H67.4617L72.2503 18.0493L70.145 15.8202L73.819 13.9212L78.8141 0.587402H83.4375L94.7899 30.8465ZM85.6667 18.875L81.1258 6.49061L76.5849 18.875H85.6667ZM128.541 15.8202L126.023 18.0081V30.8465H121.606L108.974 8.43083V30.8465H104.557V18.0081L102.039 15.8202L104.557 13.591V0.587402H109.222L121.606 22.3839V0.587402H126.023V13.591L128.541 15.8202ZM163.325 15.8202L160.807 18.0081V25.8102L155.151 30.8465H144.418L138.721 25.8102V18.0081L136.203 15.8202L138.721 13.591V5.62371L144.418 0.587402H155.151L160.807 5.62371V13.591L163.325 15.8202ZM156.39 23.7461V7.72905L153.252 5.00449H146.317L143.18 7.72905V23.7461L146.317 26.4294H153.252L156.39 23.7461ZM191.834 30.8052H173.546V18.0081L171.028 15.7789L173.546 13.591V0.587402H191.834V5.00449H177.963V13.591H188.655V18.0081H177.963V26.3881H191.834V30.8052ZM221.209 30.8465H202.922V18.0081L200.404 15.8202L202.922 13.591V0.587402H207.339V26.4294H221.209V30.8465ZM274.429 25.8102L268.732 30.8465H258.453L252.756 25.8102V20.3198H257.174V23.7049L260.311 26.4294H266.833L269.971 23.7049V20.3198L266.833 17.6365H259.072L253.376 12.5589V5.62371L259.072 0.587402H268.691L274.388 5.62371V10.66H269.971V7.52264L267.04 5.00449H260.765L257.834 7.52264V10.66L260.765 13.2194H268.732L274.429 18.2558V25.8102ZM309.832 30.8465H305.208L302.36 23.2921H289.976L287.127 30.8465H282.504L287.292 18.0493L285.187 15.8202L288.861 13.9212L293.856 0.587402H298.48L309.832 30.8465ZM300.709 18.875L296.168 6.49061L291.627 18.875H300.709ZM340.281 30.8465H335.492L329.176 18.0493H323.768V30.8465H319.351V18.0493L316.833 15.8202L319.351 13.6323V0.587402H333.965L338.877 6.28421V12.3525L333.965 18.0493L340.281 30.8465ZM334.46 10.4536V8.14186L331.859 5.04577H323.768V13.6323H331.859L334.46 10.4536ZM374.652 30.8465H370.028L367.18 23.2921H354.795L351.947 30.8465H347.323L352.112 18.0493L350.007 15.8202L353.681 13.9212L358.676 0.587402H363.299L374.652 30.8465ZM365.528 18.875L360.987 6.49061L356.447 18.875H365.528ZM391.973 15.8202L389.455 18.0493V30.8465H385.038V18.0493L382.52 15.8202L385.038 13.6323V0.587402H389.455V13.6323L391.973 15.8202ZM426.881 0.587402L421.885 13.9212L424.197 16.1504L420.317 18.0493L415.281 30.8465H410.533L405.579 18.0493L401.699 16.1504L404.011 13.9212L399.016 0.587402H404.052L412.886 24.7369L421.72 0.587402H426.881ZM459.6 30.8465H454.976L452.128 23.2921H439.744L436.895 30.8465H432.272L437.06 18.0493L434.955 15.8202L438.629 13.9212L443.624 0.587402H448.248L459.6 30.8465ZM450.477 18.875L445.936 6.49061L441.395 18.875H450.477Z" fill="#111111"/>
</svg>
