<svg width="154" height="140" viewBox="0 0 154 140" fill="none" xmlns="http://www.w3.org/2000/svg">
<path d="M86.0591 29.8712C72.5042 29.8712 61.4792 40.8979 61.4792 54.4493C61.4792 68.0042 72.5042 79.0292 86.0591 79.0292C99.6105 79.0292 110.637 68.0042 110.637 54.4493C110.637 40.8962 99.6105 29.8712 86.0591 29.8712Z" fill="#111111"/>
<path d="M61.0144 64.2978C60.6148 63.2807 60.2666 62.2362 59.9871 61.1625L28.1247 70.1619C25.9825 64.9718 20.8799 61.3203 14.9215 61.3203C7.03006 61.3203 0.637695 67.7144 0.637695 75.6006C0.637695 83.4886 7.03178 89.8844 14.9215 89.8844C22.8095 89.8844 29.2018 83.4886 29.2018 75.6006C29.2018 74.8271 29.1246 74.0758 29.0046 73.3366L61.0144 64.2978Z" fill="#111111"/>
<path d="M46.8954 20.3899C47.2898 20.1429 47.6586 19.8719 48.0102 19.5855L66.2423 36.255C66.9884 35.4421 67.7859 34.6805 68.6246 33.9653L50.2365 17.1551C52.5639 13.6717 52.8041 9.00817 50.4526 5.21597C47.2452 0.0430756 40.4533 -1.55201 35.2804 1.65532C30.104 4.86265 28.5141 11.6564 31.7197 16.8293C34.9253 22.0021 41.7207 23.599 46.8954 20.3899Z" fill="#111111"/>
<path d="M106.277 36.7113L125.947 22.0896C128.924 25.0397 133.454 26.1597 137.628 24.5715C143.314 22.4018 146.17 16.0352 144.004 10.3494C141.834 4.66028 135.467 1.80627 129.778 3.9725C124.094 6.13874 121.237 12.5088 123.405 18.1945C123.571 18.6302 123.77 19.0435 123.983 19.4449L103.933 34.3495C104.758 35.0871 105.543 35.876 106.277 36.7113Z" fill="#111111"/>
<path d="M77.0151 112.445C76.3359 112.077 75.6361 111.785 74.9312 111.536L81.8313 81.0325C80.7387 80.8575 79.665 80.614 78.6154 80.3121L71.7187 110.796C66.1376 110.199 60.4897 112.939 57.6442 118.176C53.8812 125.107 56.4453 133.779 63.3745 137.545C70.3072 141.311 78.979 138.746 82.7437 131.815C86.5085 124.884 83.9461 116.212 77.0151 112.445Z" fill="#111111"/>
<path d="M149.218 70.2065C144.266 66.6699 137.381 67.8156 133.847 72.7707C133.574 73.1514 133.339 73.5442 133.126 73.9421L110.455 65.7986C109.984 66.8122 109.452 67.7882 108.86 68.7281L132.008 77.0448C131.202 81.1578 132.773 85.5485 136.407 88.1436C141.362 91.6819 148.244 90.5328 151.784 85.5794C155.324 80.6261 154.173 73.7432 149.218 70.2065Z" fill="#111111"/>
</svg>
